<svg width="27" height="15" viewBox="0 0 27 15" fill="none" xmlns="http://www.w3.org/2000/svg">
<path d="M25.8183 15C25.8178 15 25.8173 15 25.8169 15H1.18164C0.739481 15 0.334285 14.752 0.131548 14.3573C-0.0711883 13.9626 -0.0376306 13.4871 0.218674 13.1251L8.57139 1.32651C8.79121 1.01601 9.14604 0.830358 9.52532 0.827428C9.90217 0.824498 10.2623 1.0047 10.4868 1.31185L16.3622 9.3492L19.7742 6.02317C20.0172 5.78615 20.3497 5.66534 20.6875 5.69145C21.0252 5.71748 21.3356 5.88784 21.5398 6.15933L26.7289 13.0565C26.8983 13.2619 27 13.5255 27 13.8131C27 14.4686 26.4709 15 25.8183 15ZM3.47198 12.6261H23.4427L20.4605 8.6622L17.0352 12.0014C16.7901 12.2403 16.454 12.3611 16.1137 12.3324C15.7733 12.3038 15.4619 12.1286 15.2598 11.8521L9.54957 4.04093L3.47198 12.6261Z" fill="white"/>
</svg>
